<svg xmlns="http://www.w3.org/2000/svg" fill="none" viewBox="0 0 199 35" height="35" width="199">
<path fill="white" d="M31.8397 16.4044C35.7849 19.651 37.1032 24.4581 35.2963 28.9257C33.8417 32.5195 30.9495 33.9373 27.3319 34.0511C25.0306 34.1244 22.7237 34.0781 20.4187 34.0627C19.2027 34.055 18.6989 33.5303 18.6989 32.2861C18.6932 22.124 18.6951 11.9638 18.6989 1.8017C18.6989 0.675154 19.1629 0.0520798 20.1384 0.0482218C22.7256 0.0366476 25.3242 -0.0617326 27.8963 0.156247C33.7602 0.650077 36.0709 4.83027 35.6145 10.2605C35.3929 12.9148 34.3076 15.0657 31.8378 16.4044H31.8397ZM23.2143 24.0935C23.2143 25.6039 23.2143 27.1144 23.2143 28.6248C23.2143 29.4697 23.6177 29.9867 24.4435 30.0252C25.3867 30.0696 26.3413 30.0928 27.2789 29.9963C29.3074 29.788 30.8169 28.5592 31.1578 26.5009C31.4078 24.9847 31.4306 23.3528 31.1673 21.8423C30.7487 19.4446 29.0498 18.2138 26.6406 18.1656C25.9777 18.1521 25.3147 18.1444 24.6537 18.1656C23.6442 18.2003 23.2275 18.6266 23.2181 19.6567C23.2029 21.1344 23.2143 22.6139 23.2162 24.0916L23.2143 24.0935ZM23.2124 9.31718C23.2124 10.6656 23.1991 12.014 23.2162 13.3623C23.2294 14.3288 23.6594 14.7937 24.6045 14.8033C25.578 14.811 26.5667 14.8226 27.5251 14.6799C29.7657 14.3442 31.1237 12.583 31.2203 10.0348C31.3415 6.80945 30.1729 4.75504 27.8774 4.18598C27.4834 4.0876 27.0705 4.0413 26.6633 4.02394C26.0023 3.99693 25.3394 4.00465 24.6783 4.01815C23.6291 4.03744 23.2237 4.46183 23.2162 5.5633C23.2067 6.81524 23.2143 8.06717 23.2124 9.31911V9.31718Z"></path>
<path fill="white" d="M61.0062 34.0492C59.4663 34.0492 58.1197 34.1033 56.7844 34.003C56.5192 33.9837 56.1859 33.4088 56.0684 33.0307C54.7653 28.8062 53.4641 24.5816 52.2425 20.332C51.9584 19.3443 51.5815 18.9527 50.5151 18.9932C48.0699 19.0858 48.0548 19.0357 48.0548 21.5646C48.0548 25.1314 48.0586 28.7001 48.0548 32.2668C48.0548 33.6133 47.6211 34.0454 46.3028 34.0628C43.7175 34.0936 43.5508 33.9258 43.5508 31.3274C43.5508 21.5878 43.5508 11.85 43.5527 2.1104C43.5527 0.409005 43.9315 0.0328451 45.6229 0.0328451C47.8938 0.0328451 50.1666 0.027058 52.4376 0.0347741C56.1196 0.0482773 58.9265 2.07182 60.0876 5.63666C61.0005 8.43953 61.0043 11.2617 59.9398 14.0376C59.3148 15.6695 58.3128 17.0488 56.7882 17.8802C55.987 18.3161 56.0324 18.7424 56.273 19.4658C57.7352 23.8736 59.1595 28.2969 60.5952 32.7144C60.7126 33.0751 60.8187 33.4397 61.0062 34.0492ZM48.0567 9.65289C48.0567 11.0669 48.0415 12.4808 48.0624 13.8948C48.0775 14.9423 48.4828 15.3589 49.4961 15.3898C50.2216 15.413 50.947 15.3975 51.6724 15.3937C53.5835 15.384 54.9169 14.4542 55.6593 12.6892C56.3847 10.9685 56.3904 9.18221 55.9017 7.40365C55.2748 5.12354 53.7899 4.01435 51.464 4.01242C50.8958 4.01242 50.3276 4.01242 49.7594 4.01242C48.3787 4.01821 48.0605 4.34807 48.0548 5.79484C48.051 7.0815 48.0548 8.36623 48.0548 9.65289H48.0567Z"></path>
<path fill="white" d="M158.974 34.0492C157.462 34.0492 156.142 34.0955 154.831 34.0087C154.578 33.9914 154.248 33.4821 154.142 33.1368C152.788 28.7598 151.451 24.3752 150.157 19.9789C149.937 19.2305 149.617 18.9874 148.844 19.0009C146.117 19.0472 146.117 19.0144 146.117 21.7536C146.117 25.2259 146.119 28.6981 146.117 32.1704C146.117 33.6171 145.674 34.0569 144.242 34.0627C143.926 34.0627 143.611 34.0685 143.295 34.0627C142.081 34.0396 141.617 33.594 141.617 32.3845C141.611 22.1298 141.613 11.8732 141.619 1.61848C141.619 0.634681 142.035 0.0656191 142.908 0.057903C145.748 0.0289676 148.598 -0.0809867 151.424 0.117703C154.837 0.356902 157.028 2.41903 158.104 5.66172C159.055 8.52439 159.038 11.4121 157.886 14.2343C157.227 15.8508 156.178 17.1722 154.648 18.0055C154.053 18.3296 154.038 18.6498 154.231 19.2324C155.71 23.7019 157.159 28.1831 158.61 32.6642C158.735 33.05 158.82 33.4493 158.977 34.0531L158.974 34.0492ZM146.113 9.64901C146.113 11.0302 146.106 12.4114 146.115 13.7926C146.123 15.0194 146.482 15.3782 147.71 15.3936C148.373 15.4033 149.034 15.4052 149.697 15.3936C151.708 15.3551 153.081 14.3635 153.792 12.4268C154.362 10.872 154.375 9.27671 154 7.68719C153.407 5.17367 151.92 4.01433 149.401 4.01047C148.77 4.01047 148.14 4.00083 147.509 4.01433C146.513 4.03555 146.13 4.40785 146.119 5.40901C146.102 6.82299 146.115 8.23696 146.113 9.64901Z"></path>
<path fill="white" d="M92.6875 17.0527C92.6875 12.0373 92.6875 7.02182 92.6875 2.00636C92.6875 0.39948 93.053 0.0329651 94.6459 0.031036C96.665 0.029107 98.6859 0.027178 100.705 0.031036C105.984 0.0368231 109.344 3.12519 109.503 8.50138C109.671 14.1862 109.658 19.8826 109.512 25.5694C109.383 30.5752 106.455 33.5922 101.671 34.0281C100.856 34.1015 100.031 34.059 99.2105 34.0609C97.7597 34.0648 96.307 34.0609 94.8562 34.0609C92.9735 34.0609 92.6875 33.7639 92.6875 31.8078C92.6875 26.8888 92.6875 21.9698 92.6875 17.0508V17.0527ZM97.1858 30.0582C98.3393 30.0582 99.3147 30.0679 100.29 30.0582C102.879 30.0274 104.256 28.9066 104.794 26.3178C104.944 25.6022 104.982 24.8518 104.985 24.1168C105.002 20.1951 105.002 16.2734 104.989 12.3517C104.985 10.9705 105.01 9.58163 104.887 8.2101C104.639 5.44966 103.033 4.0164 100.326 4.01254C99.8848 4.01254 99.4416 4.01254 99.0003 4.01254C97.4472 4.0164 97.1877 4.27489 97.1877 5.86247C97.1858 13.5458 97.1877 21.2291 97.1877 28.9124C97.1877 29.2596 97.1877 29.6049 97.1877 30.0601L97.1858 30.0582Z"></path>
<path fill="white" d="M83.5895 34.0668C80.9303 34.0359 81.4928 34.414 80.9833 31.833C80.7731 30.7624 80.5629 29.6918 80.3848 28.6173C80.2939 28.0675 80.095 27.782 79.4738 27.7917C77.2028 27.8245 74.9319 27.8129 72.661 27.7994C72.1666 27.7955 71.9355 27.9634 71.8503 28.4919C71.5908 30.1065 71.2518 31.7076 70.9923 33.3222C70.9014 33.8893 70.64 34.0803 70.1097 34.0687C69.1949 34.0494 68.2782 34.0282 67.3653 34.0745C66.53 34.117 66.3406 33.8353 66.5262 32.9943C67.4808 28.708 68.3767 24.4082 69.301 20.1142C70.6703 13.7523 72.0587 7.39419 73.4015 1.02649C73.5549 0.299245 73.7993 -0.028689 74.5701 0.0156785C75.6384 0.0774073 76.7161 0.0696912 77.7862 0.0156785C78.4586 -0.0190439 78.7389 0.247161 78.8772 0.895313C79.9321 5.84905 81.0117 10.797 82.08 15.7488C83.3092 21.4529 84.5327 27.157 85.7582 32.8612C86.0082 34.0263 85.9836 34.0591 84.8187 34.0668C84.4077 34.0687 83.9986 34.0668 83.5876 34.0668H83.5895ZM79.4814 24.1227C78.3753 18.2411 77.2919 12.4849 76.2104 6.72675C76.1176 6.73254 76.0248 6.73833 75.932 6.74218C74.8675 12.508 73.805 18.2758 72.7254 24.1208H79.4814V24.1227Z"></path>
<path fill="white" d="M117.883 17.0235C117.883 12.0099 117.883 6.99641 117.885 1.98095C117.885 0.428086 118.266 0.0326365 119.77 0.0307075C123.84 0.0249204 127.91 0.0249204 131.981 0.0307075C133.394 0.0307075 133.801 0.49946 133.797 2.07161C133.795 3.55889 133.38 4.00835 131.984 4.01028C129.303 4.01414 126.621 4.01028 123.939 4.01414C122.749 4.01607 122.399 4.35365 122.395 5.54579C122.384 8.21363 122.386 10.8815 122.395 13.5493C122.399 14.6662 122.77 15.0308 123.888 15.0366C125.276 15.0443 126.664 15.025 128.052 15.0424C129.227 15.0578 129.638 15.5574 129.647 16.9116C129.657 18.4394 129.265 18.993 128.081 19.0162C126.662 19.0412 125.242 19.0142 123.821 19.0258C122.751 19.0354 122.403 19.375 122.397 20.4764C122.38 23.1771 122.38 25.8758 122.391 28.5764C122.397 29.7049 122.77 30.081 123.874 30.0849C126.588 30.0945 129.301 30.0849 132.015 30.0888C133.369 30.0907 133.793 30.5421 133.797 31.9561C133.803 33.5706 133.409 34.0587 132.036 34.0625C127.903 34.0722 123.77 34.0703 119.635 34.0625C118.315 34.0606 117.885 33.6247 117.883 32.2628C117.876 27.1836 117.88 22.1065 117.882 17.0273L117.883 17.0235Z"></path>
<path fill="white" d="M164.035 0.0364283C165.562 0.0364283 166.886 -0.0253004 168.194 0.0827249C168.496 0.107802 168.884 0.673006 169.005 1.06267C170.24 5.03839 171.429 9.03147 172.632 13.0168C172.721 13.31 172.833 13.5975 173.144 13.9138C173.257 13.609 173.384 13.3081 173.479 12.9975C174.676 9.04304 175.888 5.0924 177.047 1.1244C177.284 0.316137 177.634 -0.0426616 178.498 0.0171381C179.619 0.094299 180.75 0.0364283 182.042 0.0364283C181.892 0.607419 181.814 1.03373 181.672 1.4369C179.659 7.17767 177.629 12.9107 175.629 18.6554C175.433 19.2148 175.329 19.8379 175.325 20.4339C175.299 24.3228 175.314 28.2117 175.312 32.1007C175.312 33.5744 174.914 33.9699 173.46 33.9815C170.888 34.0007 170.799 33.912 170.799 31.2963C170.799 27.7604 170.82 24.2264 170.782 20.6905C170.774 19.9382 170.649 19.1531 170.403 18.4451C168.429 12.7583 166.412 7.08701 164.414 1.40989C164.281 1.02988 164.198 0.632497 164.035 0.0402864V0.0364283Z"></path>
<path fill="white" d="M183.102 28.0676C183.102 26.5243 183.03 24.9792 183.117 23.4398C183.328 19.6917 187.017 17.2245 190.173 18.6906C191.875 19.4815 192.892 20.9051 193.211 22.7338C193.366 23.6308 193.737 23.8237 194.523 23.9549C197.131 24.3908 199.04 26.615 198.997 29.0301C198.955 31.3758 197.001 33.5132 194.402 33.899C193.224 34.0745 192.014 34.0417 190.818 34.0553C188.767 34.0765 186.716 34.0649 184.667 34.0591C183.354 34.0553 183.083 33.7678 183.079 32.404C183.078 30.9572 183.079 29.5105 183.079 28.0656C183.087 28.0656 183.096 28.0656 183.104 28.0656L183.102 28.0676Z"></path>
<path fill="white" d="M5.45941 19.6571C3.91388 19.6571 2.36836 19.6436 0.822828 19.6649C0.27356 19.6726 -0.00675651 19.4932 0.00839573 18.901C0.0216539 18.3473 0.320911 18.1911 0.805782 18.1969C1.8475 18.2065 2.88921 18.1757 3.92904 18.2084C4.6071 18.2316 4.95181 18.0001 4.87226 17.2671C4.84764 17.0452 4.84954 16.8157 4.87226 16.5939C4.94424 15.8589 4.66771 15.5387 3.90441 15.5773C2.89679 15.6293 1.88538 15.5773 0.877755 15.5985C0.356897 15.6101 0.0140778 15.4808 0.0121838 14.8712C0.00839573 14.2848 0.307652 14.0977 0.847451 14.0996C3.93851 14.1112 7.02956 14.1112 10.1206 14.0996C10.6642 14.0977 10.9313 14.2771 10.9351 14.8751C10.9388 15.5213 10.5809 15.6023 10.079 15.5946C9.06943 15.5811 8.05802 15.6236 7.0504 15.5811C6.36286 15.5522 6.03141 15.7856 6.11096 16.5128C6.13179 16.7038 6.13748 16.9025 6.11096 17.0896C5.96701 18.0233 6.414 18.2586 7.24927 18.2065C8.1925 18.1486 9.14141 18.2027 10.0865 18.1949C10.5828 18.1911 10.9369 18.2798 10.9369 18.928C10.9369 19.5646 10.6131 19.6649 10.0979 19.6591C8.55236 19.6436 7.00683 19.6533 5.46131 19.6533L5.45941 19.6571Z"></path>
<path fill="white" d="M5.423 11.3944C3.90778 11.3944 2.39256 11.3809 0.879228 11.4021C0.305337 11.4098 -0.0128599 11.242 0.000398354 10.59C0.0231267 9.36891 -0.0280121 8.14398 0.0363849 6.92676C0.0496431 6.6567 0.371628 6.2381 0.619746 6.1783C1.18606 6.04134 1.25993 6.50045 1.25235 6.96727C1.23909 7.70609 1.26561 8.44683 1.24667 9.18565C1.23341 9.72192 1.48532 9.94954 1.98534 9.95147C2.30164 9.95147 2.61605 9.95533 2.93236 9.95533C4.69949 9.9534 4.68055 9.94954 4.89457 8.1922C4.92488 7.94722 5.26959 7.74081 5.46846 7.51704C5.68249 7.73502 6.00258 7.91635 6.08781 8.17677C6.26395 8.72075 6.13327 9.51551 6.46851 9.81451C6.79996 10.1116 7.54811 9.92832 8.11442 9.94954C8.33413 9.95726 8.55762 9.93604 8.77733 9.9534C9.45729 10.0132 9.7698 9.73156 9.73571 9.01011C9.70162 8.30409 9.67321 7.58842 9.76033 6.89204C9.79443 6.62198 10.1486 6.39242 10.357 6.14551C10.5482 6.40786 10.8892 6.66249 10.9043 6.93255C10.9649 8.1189 10.9043 9.31104 10.9403 10.4993C10.9611 11.1668 10.7263 11.4156 10.0672 11.4021C8.52164 11.3712 6.97422 11.3925 5.42869 11.3925L5.423 11.3944Z"></path>
<path fill="white" d="M6.08316 25.7793C4.88424 25.7793 3.68153 25.8333 2.4864 25.76C1.55643 25.7041 1.0905 25.9703 1.24392 26.9811C1.25907 27.0756 1.28369 27.2029 1.23823 27.2646C1.06398 27.5058 0.861322 27.7257 0.670025 27.9533C0.450318 27.745 0.0468895 27.5424 0.0393134 27.3283C-0.0137195 25.7542 -0.0137195 24.1782 0.0431014 22.6041C0.0506775 22.3919 0.461682 22.1932 0.685177 21.9888C0.872686 22.2241 1.19657 22.444 1.22308 22.6967C1.39165 24.294 1.37082 24.2978 2.94475 24.2978C5.28009 24.2978 7.61543 24.3036 9.95266 24.292C10.5038 24.2901 10.9565 24.2997 10.9376 25.0752C10.9205 25.816 10.4565 25.7793 9.96592 25.7793C8.6723 25.7774 7.37678 25.7793 6.08316 25.7793Z"></path>
</svg>
