<svg xmlns:xlink="http://www.w3.org/1999/xlink" width="250" height="101" viewBox="0 0 250 101" fill="none" xmlns="http://www.w3.org/2000/svg" class="FooterStars absolute top-[7px] left-[-3px] lg:top-[15px] left-[-5px] h-auto w-full lg:w-[250px]"><path class="translate-y-[100px]" d="M239.724 65.692C239.868 65.3015 240.421 65.3015 240.565 65.692L242.125 69.9074C242.261 70.2757 242.552 70.5662 242.92 70.7025L247.136 72.2623C247.526 72.4068 247.526 72.9592 247.136 73.1038L242.92 74.6636C242.552 74.7999 242.261 75.0903 242.125 75.4587L240.565 79.674C240.421 80.0646 239.868 80.0646 239.724 79.674L238.164 75.4587C238.028 75.0903 237.737 74.7999 237.369 74.6636L233.154 73.1037C232.763 72.9592 232.763 72.4068 233.154 72.2623L237.369 70.7025C237.737 70.5662 238.028 70.2757 238.164 69.9074L239.724 65.692Z" fill="#FFFFFF" stroke="#000000" stroke-width="0.897204px" data-svg-origin="232.86074829101562 65.39912414550781" transform="matrix(1,0,0,1,0,0)" style="transform-origin: 0px 0px; transform: matrix(1, 0, 0, 1, 0, 0);"></path><path class="translate-y-[100px]" d="M61.1654 85.5537C61.2819 85.1062 61.9173 85.1062 62.0337 85.5537L62.9779 89.1824C63.1008 89.6545 63.4694 90.0232 63.9415 90.146L67.5703 91.0902C68.0178 91.2066 68.0178 91.842 67.5703 91.9585L63.9415 92.9027C63.4694 93.0255 63.1008 93.3942 62.9779 93.8662L62.0337 97.495C61.9173 97.9425 61.2819 97.9425 61.1654 97.495L60.2212 93.8662C60.0984 93.3942 59.7298 93.0255 59.2577 92.9027L55.6289 91.9585C55.1814 91.842 55.1814 91.2066 55.6289 91.0902L59.2577 90.146C59.7298 90.0232 60.0984 89.6545 60.2212 89.1824L61.1654 85.5537Z" fill="#FFFFFF" stroke="#000000" stroke-width="0.897204px" data-svg-origin="55.29327392578125 85.21807861328125" transform="matrix(1,0,0,1,0,0)" style="transform-origin: 0px 0px; transform: matrix(1, 0, 0, 1, 0, 0);"></path><path class="translate-y-[100px]" d="M8.22998 28.2864C8.34295 27.8328 8.98761 27.8328 9.10058 28.2864L9.79922 31.0914C9.91955 31.5745 10.2968 31.9517 10.7799 32.072L13.5849 32.7707C14.0384 32.8837 14.0384 33.5283 13.5849 33.6413L10.7799 34.3399C10.2968 34.4603 9.91955 34.8375 9.79922 35.3206L9.10058 38.1256C8.98761 38.5791 8.34295 38.5791 8.22998 38.1256L7.53134 35.3206C7.41101 34.8375 7.0338 34.4603 6.55069 34.3399L3.7457 33.6413C3.29212 33.5283 3.29212 32.8837 3.7457 32.7707L6.55069 32.072C7.0338 31.9517 7.41101 31.5745 7.53134 31.0914L8.22998 28.2864Z" fill="#FFFFFF" stroke="#000000" stroke-width="0.897204px" data-svg-origin="3.40551495552063 27.946199417114258" transform="matrix(1,0,0,1,0,0)" style="transform-origin: 0px 0px; transform: matrix(1, 0, 0, 1, 0, 0);"></path><path class="translate-y-[100px]" d="M106.916 58.437C107.003 57.9436 107.711 57.9436 107.799 58.437L108.165 60.4969C108.251 60.9759 108.588 61.3717 109.047 61.5319L111.509 62.3903C111.91 62.5302 111.91 63.0976 111.509 63.2375L109.047 64.0959C108.588 64.2561 108.251 64.6519 108.165 65.1309L107.799 67.1908C107.711 67.6842 107.003 67.6842 106.916 67.1908L106.549 65.1309C106.464 64.6519 106.127 64.2561 105.667 64.0959L103.205 63.2375C102.804 63.0976 102.804 62.5302 103.205 62.3903L105.667 61.5319C106.127 61.3717 106.464 60.9759 106.549 60.4969L106.916 58.437Z" fill="#FFFFFF" stroke="#000000" stroke-width="0.897204px" data-svg-origin="102.90425109863281 58.06694793701172" transform="matrix(1,0,0,1,0,0)" style="transform-origin: 0px 0px; transform: matrix(1, 0, 0, 1, 0, 0);"></path><path class="translate-y-[100px]" d="M200.226 5.50191C200.314 5.00854 201.022 5.00854 201.109 5.50191L201.476 7.56179C201.561 8.04087 201.898 8.43662 202.358 8.59683L204.82 9.45524C205.221 9.59514 205.221 10.1625 204.82 10.3024L202.358 11.1608C201.898 11.321 201.561 11.7168 201.476 12.1959L201.109 14.2557C201.022 14.7491 200.314 14.7491 200.226 14.2557L199.86 12.1959C199.774 11.7168 199.437 11.321 198.978 11.1608L196.516 10.3024C196.115 10.1625 196.115 9.59514 196.516 9.45524L198.978 8.59683C199.437 8.43662 199.774 8.04087 199.86 7.56179L200.226 5.50191Z" fill="#FFFFFF" stroke="#000000" stroke-width="0.897204px" data-svg-origin="196.2152557373047 5.131882667541504" transform="matrix(1,0,0,1,0,0)" style="transform-origin: 0px 0px; transform: matrix(1, 0, 0, 1, 0, 0);"></path></svg>