<svg xmlns="http://www.w3.org/2000/svg" fill="none" viewBox="0 0 129 62" height="62" width="129">
<path fill="white" d="M68.6382 39.3915C67.6221 46.6317 66.6484 53.5874 65.6612 60.6181C63.0119 60.6181 60.4456 60.6238 57.8792 60.6142C57.1118 60.6123 56.3232 60.6661 55.577 60.5258C51.4797 59.757 48.9134 56.0341 49.515 51.8595C50.776 43.1202 52.0216 34.3789 53.271 25.6395C53.62 23.1986 52.8044 21.5207 50.9514 20.9518C49.5497 20.5212 48.2212 20.8787 47.1299 21.7263C45.5912 22.9199 44.174 24.2711 42.7164 25.5684C42.431 25.8221 42.1977 26.1354 41.9432 26.4237C39.211 29.5124 39.2342 29.5162 38.6692 33.5755C37.5104 41.9093 36.3265 50.2393 35.1465 58.5711C35.1157 58.7903 35.0385 59.0017 34.971 59.2592H26.3195C26.6646 56.7837 27.0001 54.3581 27.3433 51.9325C28.1512 46.2319 28.963 40.5293 29.7728 34.8286C30.1951 31.8514 30.6038 28.8723 31.0415 25.8952C31.2941 24.1769 31.3134 22.5144 29.688 21.4034C28.0375 20.2752 26.3426 20.6923 24.9428 21.7859C23.059 23.2562 21.3719 24.9745 19.5787 26.564C17.2322 28.6436 16.8485 31.4498 16.4667 34.3385C15.4699 41.8862 14.3496 49.4166 13.2795 56.9547C13.1754 57.6832 13.0732 58.4116 12.9575 59.2227H4.25777C4.56628 56.9778 4.86321 54.7656 5.17364 52.5553C6.18398 45.3305 7.19433 38.1076 8.21045 30.8847C8.49967 28.8262 8.85445 26.7735 9.08004 24.7074C9.16681 23.9078 9.18223 22.9891 8.86795 22.2837C8.15839 20.6904 6.06251 20.3233 4.47373 21.3765C3.54629 21.9916 2.964 22.8545 2.78082 23.9501C2.57451 25.1802 2.40484 26.416 2.21202 27.698H0.00816315C-0.165369 22.253 2.43761 17.8247 6.88004 16.0026C8.91422 15.1685 10.985 15.0012 13.0886 15.6951C16.2778 16.7445 17.9822 19.3315 18.0671 23.4581C18.8595 22.547 19.5267 21.7686 20.2054 20.9998C22.1702 18.7741 24.3104 16.7599 27.0194 15.4395C33.1567 12.4488 39.4463 16.0545 39.9707 22.8622C39.9881 23.0852 40.0093 23.3062 40.0498 23.7637C40.9039 22.7296 41.6308 21.8244 42.3867 20.9402C44.7101 18.2168 47.3902 15.9642 50.8531 14.8167C55.9858 13.1158 60.972 15.9988 62.0633 21.2651C62.1211 21.5437 62.1732 21.8244 62.3737 22.1223C63.4053 14.761 64.4368 7.39971 65.4742 0H74.2144C72.4367 12.6314 70.6686 25.2032 68.8638 38.023C74.7273 34.3712 80.3806 30.8501 86.0204 27.3386C85.9953 27.2252 86.0011 27.1406 85.9645 27.1099C82.3666 24.2173 83.857 19.3334 86.7319 17.1539C88.3496 15.9257 90.1447 15.3414 92.148 15.7431C95.019 16.3178 96.8681 19.1163 96.388 22.0127C96.3629 22.1626 96.3378 22.3106 96.3166 22.4375C97.5005 21.4534 98.5802 20.3271 99.8663 19.5295C106.779 15.2415 114.144 14.0268 121.849 17.0136C129.66 20.0388 130.747 28.8896 126.696 34.3155C124.034 37.8827 120.794 40.8484 117.144 43.3104C112.951 46.1415 108.568 48.692 104.264 51.3636C104.006 51.5251 103.736 51.6673 103.507 51.9748H126.864C126.446 54.8617 126.045 57.639 125.626 60.5239C125.235 60.5239 124.892 60.5239 124.55 60.5239C113.625 60.5239 102.701 60.5566 91.7759 60.4759C90.6942 60.4682 89.84 60.6873 88.9029 61.114C84.4991 63.1225 80.1068 61.6771 77.579 57.2219C75.8919 54.2466 74.4824 51.1138 72.965 48.0424C71.6461 45.3727 70.3485 42.6935 69.0393 40.018C68.9737 39.8816 68.8754 39.7605 68.6382 39.3915ZM94.8107 54.8117C96.7119 53.3202 98.4973 51.9172 100.285 50.516C104.955 46.8546 109.681 43.2547 113.618 38.7687C115.766 36.322 117.7 33.7369 118.546 30.5176C119.755 25.9201 117.254 21.8013 112.577 20.8057C109.92 20.2406 107.27 20.479 104.716 21.4092C103.919 21.6994 103.188 22.1722 102.267 22.6431C102.691 22.8411 102.915 22.9468 103.138 23.0506C104.581 23.7194 105.458 24.8438 105.759 26.3891C106.482 30.114 103.316 34.0714 99.4556 34.2866C95.9156 34.4846 93.5517 32.1551 93.7927 28.6379C93.8544 27.746 94.1224 26.8696 94.2439 26.2565C88.6465 29.8449 82.9084 33.5217 77.203 37.1773C77.2319 37.3349 77.23 37.4041 77.257 37.4579C80.1646 43.0894 83.0414 48.7382 86.03 54.3293C86.3848 54.9924 87.2794 55.5728 88.0372 55.7785C90.2488 56.3781 92.4816 54.8098 92.8768 52.5495C93.0137 51.7615 93.0831 50.9619 93.2547 50.1816C93.3068 49.9413 93.5729 49.6031 93.7831 49.5704C94.3306 49.4839 94.9033 49.5416 95.582 49.5416C95.3178 51.3386 95.0788 52.9743 94.8107 54.8079V54.8117Z"></path>
</svg>
